<?xml version="1.0" encoding="UTF-8" standalone="no"?>
<svg
   xmlns:dc="http://purl.org/dc/elements/1.1/"
   xmlns:cc="http://creativecommons.org/ns#"
   xmlns:rdf="http://www.w3.org/1999/02/22-rdf-syntax-ns#"
   xmlns:svg="http://www.w3.org/2000/svg"
   xmlns="http://www.w3.org/2000/svg"
   viewBox="0 0 576 306.29333"
   height="306.29333"
   width="576"
   xml:space="preserve"
   id="svg2"
   version="1.1"><metadata
     id="metadata8"><rdf:RDF><cc:Work
         rdf:about=""><dc:format>image/svg+xml</dc:format><dc:type
           rdf:resource="http://purl.org/dc/dcmitype/StillImage" /></cc:Work></rdf:RDF></metadata><defs
     id="defs6" /><g
     transform="matrix(1.3333333,0,0,-1.3333333,0,306.29333)"
     id="g10"><g
       transform="scale(0.1)"
       id="g12"><path
         id="path14"
         style="fill:#1c428b;fill-opacity:1;fill-rule:nonzero;stroke:none"
         d="m 2331.17,565.059 -19.51,325.472 -141.93,-325.472 h -48.21 l -142.69,325.472 -21.81,-325.472 h -99.52 l 38.68,509.671 h 104 l 150.45,-335.582 144.91,335.582 h 101.92 l 38.67,-509.671 h -104.96" /><path
         id="path16"
         style="fill:#1c428b;fill-opacity:1;fill-rule:nonzero;stroke:none"
         d="M 0,565.059 V 1074.73 H 357.871 L 331.445,990.102 H 106.062 V 856.988 H 314.77 V 772.801 H 106.062 V 565.059 H 0" /><path
         id="path18"
         style="fill:#1c428b;fill-opacity:1;fill-rule:nonzero;stroke:none"
         d="m 2708.41,565.059 v 509.671 h 343.06 l -26.41,-84.621 H 2814.52 V 872.891 h 207.75 V 788.672 H 2814.52 V 652.07 h 230.72 v -87.011 h -336.83" /><path
         id="path20"
         style="fill:#1c428b;fill-opacity:1;fill-rule:nonzero;stroke:none"
         d="M 802.418,748.18 726.305,946.578 651.227,748.18 Z M 868.082,565.059 829.703,668.102 H 624.402 L 586.531,565.059 H 478.492 l 202.344,509.681 h 99.121 L 984.438,565.059 H 868.082" /><path
         id="path22"
         style="fill:#1c428b;fill-opacity:1;fill-rule:nonzero;stroke:none"
         d="m 3489.4,841.559 c 67.34,0 95.02,34.089 95.02,75.461 0,41.359 -27.44,75.48 -94.22,75.48 h -64.63 V 841.559 Z m 120.39,-276.52 -136.7,195.883 h -47.52 V 565.039 h -106.5 v 509.681 h 181.11 c 141.47,0 191.35,-78.919 191.35,-153.74 0,-67.671 -40.96,-119.468 -107.48,-142.699 l 155.34,-213.242 h -129.6" /><path
         id="path24"
         style="fill:#1c428b;fill-opacity:1;fill-rule:nonzero;stroke:none"
         d="m 1379.54,841.559 c 67.34,0 95.03,34.089 95.03,75.461 0,41.359 -27.44,75.48 -94.21,75.48 h -64.64 V 841.559 Z m 120.4,-276.52 -136.7,195.883 h -47.52 V 565.039 h -106.49 v 509.681 h 181.11 c 141.48,0 191.35,-78.919 191.35,-153.74 0,-67.671 -40.94,-119.468 -107.46,-142.699 l 155.31,-213.242 h -129.6" /><path
         id="path26"
         style="fill:#1c428b;fill-opacity:1;fill-rule:nonzero;stroke:none"
         d="m 4128.24,557.129 c -68.3,0 -125.26,16.051 -190.43,58.473 l 47.03,80 c 49.82,-33.262 87.03,-49.551 143.4,-49.551 55.82,0 86.56,22.109 86.56,60.019 0,35.489 -34.47,49.77 -54.3,57.102 -19.8,7.328 -65.99,24.308 -98.42,36.848 -66.11,25.492 -99.47,70.98 -99.47,134.449 0,68.381 48.17,148.201 183.87,148.201 44.9,0 101.13,-11.83 137.6,-26.54 v -98.732 c -40.84,23.891 -89.91,41.114 -140.73,41.114 -35.21,0 -77.05,-10.5 -77.05,-54.524 0,-33.269 30.9,-47.117 49.73,-54.547 21.02,-8.293 67.72,-25.39 99,-37 69.4,-25.742 104.98,-71.152 104.98,-135.242 0,-79.679 -59.29,-160.07 -191.77,-160.07" /><path
         id="path28"
         style="fill:#e11631;fill-opacity:1;fill-rule:nonzero;stroke:none"
         d="M 3410.06,4.39062 V 284.699 h 189.96 l -13.86,-43.75 H 3466.61 V 173.02 h 117.52 V 128.859 H 3466.61 V 49.4297 h 130.5 V 4.39062 h -187.05" /><path
         id="path30"
         style="fill:#e11631;fill-opacity:1;fill-rule:nonzero;stroke:none"
         d="M 719.996,4.39062 V 284.699 h 56.531 V 4.39062 h -56.531" /><path
         id="path32"
         style="fill:#e11631;fill-opacity:1;fill-rule:nonzero;stroke:none"
         d="M 1107.25,4.39062 973.121,194.941 V 4.39062 H 919.723 V 284.699 h 50.293 L 1101.83,98.0391 V 284.699 h 53.37 V 4.39062 h -47.95" /><path
         id="path34"
         style="fill:#e11631;fill-opacity:1;fill-rule:nonzero;stroke:none"
         d="M 2865.18,4.39062 2730.97,194.941 V 4.39062 h -53.36 V 284.699 h 50.3 L 2859.73,98.0391 V 284.699 h 53.36 V 4.39062 h -47.91" /><path
         id="path36"
         style="fill:#e11631;fill-opacity:1;fill-rule:nonzero;stroke:none"
         d="m 1785.38,284.699 h 56.5 V 115.602 c 0,-37.5004 -5.81,-63.102 -25.12,-84.2504 -18.84,-20.7735 -46.62,-31.3320688 -88.36,-31.3320688 -41.27,0 -69.53,10.1288688 -88.36,31.3320688 -19.27,20.7187 -25.54,46.2968 -25.54,83.8204 v 169.527 h 56.52 v -172.14 c 0,-24.2973 2.67,-35.3402 11.64,-45.9379 9.42,-11.0195 24.2,-17.6406 45.3,-17.6406 21.55,0 36.32,6.6211 45.74,17.6406 8.98,10.5977 11.68,21.6406 11.68,45.9379 v 172.14" /><path
         id="path38"
         style="fill:#e11631;fill-opacity:1;fill-rule:nonzero;stroke:none"
         d="m 2109.53,233.012 c -9.88,6.636 -20.62,9.25 -36.35,9.25 h -32.28 v -87.364 h 31.83 c 16.18,0 26.92,2.661 36.8,9.282 9.86,6.621 17.05,19.41 17.05,34.39 0,15.02 -7.19,27.809 -17.05,34.442 z M 2138.91,4.39062 2065.53,113.422 H 2040.9 V 4.39062 h -56.54 V 284.699 h 95.09 c 28.73,0 54.29,-5.738 71.8,-18.98 18.36,-14.117 31.38,-36.25 31.38,-64.918 0,-39.731 -23.78,-67.09 -58.32,-78.539 L 2207.3,4.39062 h -68.39" /><path
         id="path40"
         style="fill:#e11631;fill-opacity:1;fill-rule:nonzero;stroke:none"
         d="m 1393.41,289.141 c -76.23,0 -102.27,-44.653 -102.27,-80.84 0,-41.039 26.47,-62.25 55.17,-73.262 7.63,-3.09 43.97,-15.859 55.16,-20.301 11.24,-4.41 32.32,-12.359 32.32,-33.5466 0,-21.1719 -17.06,-34.4219 -50.68,-34.4219 -33.66,0 -55.82,10.6289 -80.53,26.8789 l -24.87,-42.289 C 1306.67,12.5391 1340.08,0 1383.11,0 c 77.58,0 106.74,47.1992 106.74,87.3594 0,31.3706 -15.72,58.2616 -58.3,73.7106 -8.09,3.11 -43.98,15.899 -54.28,19.879 -10.33,4.379 -30.96,11.903 -30.96,32.641 0,20.738 16.16,31.371 45.3,31.371 25.72,0 52.77,-7.621 77.91,-21.66 v 51.597 c -18.35,7.231 -49.87,14.243 -76.11,14.243" /><path
         id="path42"
         style="fill:#e11631;fill-opacity:1;fill-rule:nonzero;stroke:none"
         d="m 3181.7,289.141 c -74.33,0 -140.03,-51.719 -140.03,-144.403 C 3041.67,52.0703 3100.63,0 3179.48,0 c 39,0 71.62,10.1719 100.58,27.1484 l -21.25,46.1328 c -20.89,-14.4296 -45.66,-22.9726 -75.31,-22.9726 -49.78,0 -84.45,37.9531 -84.45,95.3124 0,57.391 36.01,94.918 85.37,94.918 34.28,0 60.92,-8.43 83.73,-22.277 v 55.597 c -24.12,9.34 -48.95,15.282 -86.45,15.282" /><path
         id="path44"
         style="fill:#e11631;fill-opacity:1;fill-rule:nonzero;stroke:none"
         d="m 2388.55,106.352 40.53,113.777 41.13,-113.777 z M 2505.87,4.39062 h 60.12 L 2456.85,284.699 h -51.11 L 2297.77,4.39062 h 55.6 l 20.12,57.34768 h 111.97 l 20.41,-57.34768" /><path
         id="path46"
         style="fill:#ffffff;fill-opacity:1;fill-rule:nonzero;stroke:none"
         d="m 2159.73,2297.18 v 0 c -533.53,0 -972.02,-436.06 -972.02,-972.05 v -46.29 h 801.45 c 47.28,-46.36 103.3,-85.09 170.57,-115.13 v 0 c 67.26,30.04 123.27,68.77 170.52,115.13 h 801.48 v 46.29 c 0,535.99 -438.51,972.05 -972,972.05" /><path
         id="path48"
         style="fill:#a20f30;fill-opacity:1;fill-rule:nonzero;stroke:none"
         d="m 2159.73,1214.78 c 209.62,101.29 284.41,292.51 294.54,517.15 h -294.54 v -517.15" /><path
         id="path50"
         style="fill:#e11631;fill-opacity:1;fill-rule:nonzero;stroke:none"
         d="m 2159.73,1214.78 c -209.64,101.29 -284.44,292.51 -294.56,517.15 h 294.56 v -517.15" /><path
         id="path52"
         style="fill:#a6c3e9;fill-opacity:1;fill-rule:nonzero;stroke:none"
         d="m 1732.27,1325.37 c -57.97,37.05 -112.98,78.27 -159.54,115.72 -184.59,-50.22 -338.61,-115.73 -338.61,-115.73 z m 1353.1,-0.01 c 0,0 -153.96,65.51 -338.63,115.73 -46.55,-37.45 -101.56,-78.67 -159.44,-115.72 z m -1271.45,251.3 c -25.14,64.15 -45.46,129.81 -61.08,187.48 -177.48,67.3 -341.77,105.41 -341.77,105.41 -0.02,-0.01 86.13,-143.61 205.88,-292.64 59.61,2.87 128.33,3.83 196.97,-0.25 z m 691.67,0 c 68.67,4.08 137.39,3.12 197,0.25 119.77,149.03 205.91,292.63 205.9,292.64 0,0 -164.37,-38.11 -341.76,-105.41 -15.72,-57.67 -35.96,-123.33 -61.14,-187.48 z m -213.7,155.3 c 53.16,43.67 109.25,83.34 159.2,115.98 9.29,191.09 -5.34,357.9 -5.34,357.9 0,0 -110.51,-127.23 -214.6,-286.34 21.26,-55.74 43.39,-120.9 60.74,-187.54 z m -418.06,473.88 c 0,0 110.49,-127.23 214.57,-286.34 -21.25,-55.74 -43.37,-120.9 -60.73,-187.54 -53.16,43.67 -109.34,83.34 -159.29,115.98 -9.21,191.09 5.45,357.9 5.45,357.9" /><path
         id="path54"
         style="fill:#1c428b;fill-opacity:1;fill-rule:nonzero;stroke:none"
         d="m 3085.37,1325.36 c -0.06,203.46 -65.63,391.49 -176.86,544.13 -0.14,-0.18 -86.15,-143.55 -205.92,-292.58 104.74,-5.12 181.63,-16.18 181.63,-16.18 -47.84,-45.74 -87.41,-80.73 -137.48,-119.64 184.67,-50.22 338.63,-115.73 338.63,-115.73" /><path
         id="path56"
         style="fill:#1c428b;fill-opacity:1;fill-rule:nonzero;stroke:none"
         d="m 2908.49,1869.55 c -113.74,156.09 -275.1,275.4 -462.74,336.29 0,0 14.63,-166.81 5.34,-357.9 87.77,57.43 156.36,93.65 156.36,93.65 0,0 -13.22,-76.43 -40.72,-177.45 177.39,67.3 341.76,105.41 341.76,105.41" /><path
         id="path58"
         style="fill:#1c428b;fill-opacity:1;fill-rule:nonzero;stroke:none"
         d="m 1873.83,2205.84 c 0,0 110.49,-127.23 214.57,-286.34 36.92,97.28 71.33,167.57 71.33,167.57 0,0 34.49,-70.29 71.42,-167.57 104.09,159.11 214.6,286.34 214.6,286.34 -90.13,29.2 -186.23,45.03 -285.99,45.03 -99.79,0 -195.9,-15.83 -285.93,-45.03" /><path
         id="path60"
         style="fill:#1c428b;fill-opacity:1;fill-rule:nonzero;stroke:none"
         d="m 1411.05,1869.49 c -111.25,-152.64 -176.89,-340.67 -176.93,-544.13 0,0 154.02,65.51 338.61,115.73 -50.06,38.91 -89.56,73.9 -137.4,119.64 0,0 76.92,11.06 181.62,16.18 -119.75,149.03 -205.78,292.4 -205.9,292.58" /><path
         id="path62"
         style="fill:#1c428b;fill-opacity:1;fill-rule:nonzero;stroke:none"
         d="m 1411.07,1869.55 c 0,0 164.29,-38.11 341.77,-105.41 -27.53,101.02 -40.75,177.45 -40.75,177.45 0,0 68.64,-36.22 156.29,-93.65 -9.21,191.09 5.45,357.9 5.45,357.9 -187.66,-60.89 -349.11,-180.2 -462.76,-336.29" /><path
         id="path64"
         style="fill:#1c428b;fill-opacity:1;fill-rule:nonzero;stroke:none"
         d="m 4274.41,1232.62 h -8.26 v -18.93 h 8.26 c 6.37,0 10.33,3.01 10.33,9.56 0.16,6.34 -3.96,9.37 -10.33,9.37 z m 12.07,-46.58 -12.72,21.3 h -7.46 v -21.3 h -8.26 v 52.93 h 17.15 c 9.71,0 18.14,-4.92 18.14,-15.72 0,-10.98 -8.75,-14.48 -10.97,-14.96 l 13.65,-22.25 z m -12.23,65.98 c -22.28,0 -39.57,-17.5 -39.57,-39.6 0,-22.25 17.29,-39.73 39.57,-39.73 22.25,0 39.57,17.48 39.57,39.73 0,22.1 -17.32,39.6 -39.57,39.6 z m 0,-85.54 c -25.62,0 -45.97,20.19 -45.97,45.79 0,25.75 20.35,45.94 45.97,45.94 25.59,0 45.76,-20.19 45.76,-45.79 0,-25.75 -20.17,-45.94 -45.76,-45.94" /></g></g></svg>